HIERARCHY
ROOT Hips
{
  OFFSET 52.134 86.6595 27.1869
  CHANNELS 6 Xposition Yposition Zposition Zrotation Xrotation Yrotation
  JOINT spine
  {
    OFFSET 0 6.84637 0.3937
    CHANNELS 3 Zrotation Xrotation Yrotation
    JOINT spine1
    {
      OFFSET 0 9.49621 0
      CHANNELS 3 Zrotation Xrotation Yrotation
      JOINT spine2
      {
        OFFSET 0 9.09909 0
        CHANNELS 3 Zrotation Xrotation Yrotation
        JOINT Neck
        {
          OFFSET 0 23.3612 1.11378
          CHANNELS 3 Zrotation Xrotation Yrotation
          JOINT Head
          {
            OFFSET 0 7.05802 0
            CHANNELS 3 Zrotation Xrotation Yrotation
            End Site
            {
              OFFSET 0 17.0844 -5.63419
            }
          }
        }
        JOINT RightShoulder
        {
          OFFSET -3.83136 9.82631 -0.533491
          CHANNELS 3 Zrotation Xrotation Yrotation
          JOINT RightArm
          {
            OFFSET 0 12.8881 0
            CHANNELS 3 Zrotation Xrotation Yrotation
            JOINT RightArmRoll
            {
              OFFSET 0 6.50617 0
              CHANNELS 3 Zrotation Xrotation Yrotation
              JOINT RightForeArm
              {
                OFFSET 0 18.9501 0
                CHANNELS 3 Zrotation Xrotation Yrotation
                JOINT RightForeArmRoll
                {
                  OFFSET 0 7.30092 0
                  CHANNELS 3 Zrotation Xrotation Yrotation
                  JOINT RightHand
                  {
                    OFFSET 0 14.6514 0
                    CHANNELS 3 Zrotation Xrotation Yrotation
                    End Site
                    {
                      OFFSET 0 0 0
                    }
                  }
                }
              }
            }
          }
        }
        JOINT LeftShoulder
        {
          OFFSET 3.83136 9.82631 -0.533491
          CHANNELS 3 Zrotation Xrotation Yrotation
          JOINT LeftArm
          {
            OFFSET 0 12.8881 0
            CHANNELS 3 Zrotation Xrotation Yrotation
            JOINT LeftArmRoll
            {
              OFFSET 0 6.50617 0
              CHANNELS 3 Zrotation Xrotation Yrotation
              JOINT LeftForeArm
              {
                OFFSET 0 18.9501 0
                CHANNELS 3 Zrotation Xrotation Yrotation
                JOINT LeftForeArmRoll
                {
                  OFFSET 0 7.30092 0
                  CHANNELS 3 Zrotation Xrotation Yrotation
                  JOINT LeftHand
                  {
                    OFFSET 0 14.6514 0
                    CHANNELS 3 Zrotation Xrotation Yrotation
                    End Site
                    {
                      OFFSET 0 0 0
                    }
                  }
                }
              }
            }
          }
        }
      }
    }
  }
  JOINT RightUpLeg
  {
    OFFSET -6.06837 -1.11278 -0.933477
    CHANNELS 3 Zrotation Xrotation Yrotation
    JOINT RightUpLegRoll
    {
      OFFSET 0 17.1796 0
      CHANNELS 3 Zrotation Xrotation Yrotation
      JOINT RightLeg
      {
        OFFSET 0 -21.2743 0
        CHANNELS 3 Zrotation Xrotation Yrotation
        JOINT RightLegRoll
        {
          OFFSET 0 21.3439 0
          CHANNELS 3 Zrotation Xrotation Yrotation
          JOINT RightFoot
          {
            OFFSET 0 17.7652 0
            CHANNELS 3 Zrotation Xrotation Yrotation
            JOINT RightToeBase
            {
              OFFSET 0 14.8508 0
              CHANNELS 3 Zrotation Xrotation Yrotation
              End Site
              {
                OFFSET 0.0062947 7.19214 -0.829005
              }
            }
          }
        }
      }
    }
  }
  JOINT LeftUpLeg
  {
    OFFSET 6.06837 -1.11278 -0.933477
    CHANNELS 3 Zrotation Xrotation Yrotation
    JOINT LeftUpLegRoll
    {
      OFFSET 0 17.1797 0
      CHANNELS 3 Zrotation Xrotation Yrotation
      JOINT LeftLeg
      {
        OFFSET 0 21.2742 0
        CHANNELS 3 Zrotation Xrotation Yrotation
        JOINT LeftLegRoll
        {
          OFFSET 0 21.5412 0
          CHANNELS 3 Zrotation Xrotation Yrotation
          JOINT LeftFoot
          {
            OFFSET 0 17.5679 0
            CHANNELS 3 Zrotation Xrotation Yrotation
            JOINT LeftToeBase
            {
              OFFSET 0 14.8508 0
              CHANNELS 3 Zrotation Xrotation Yrotation
              End Site
              {
                OFFSET -0.0282102 7.19214 -0.829005
              }
            }
          }
        }
      }
    }
  }
}
MOTION
Frames: 6
Frame Time: 0.00208333
51.1691 52.4245 -5.30853 -6.01501 -19.0048 -6.6953 1.80612 0.584605 2.28858 3.57771 5.23845 4.32479 3.53231 6.87977 4.27048 -16.4384 12.5964 -3.2059 11.6716 9.63966 -8.14084 53.6923 -10.0878 -6.25916 129.572 39.7807 -49.2609 -9.17776e-006 -3.32771e-006 -6.09793e-006 28.5995 22.4724 -1.3568 -9.47833e-006 3.09696e-006 -3.00001 8.03013 -4.95162 0.697669 -70.7508 -4.91726 3.7475 -121.98 47.4432 23.2092 -1.93372e-006 2.06424e-007 2.61463e-006 -34.073 12.1165 2.27595 -9.25065e-007 2.84242e-006 3.00001 -8.03083 -4.95143 -0.697732 -177.333 66.3314 3.77925 180 1.52509e-005 178.153 176.597 81.998 -178.439 2.7922e-006 -1.83524e-007 1.88304 -17.5167 59.9591 14.0691 8.13649 25.2327 -3.48774 -154.758 66.666 -25.3308 4.54188e-006 -4.6773e-006 -1.13935 53.256 -85.5358 53.7711 4.34571e-006 -5.44513e-006 -2.42994 18.0904 64.4051 -16.824 -8.13649 25.2326 3.48774 
51.1692 52.4235 -5.31325 -6.00953 -19.0178 -6.70056 1.80266 0.597381 2.27863 3.57057 5.26356 4.30502 3.52541 6.9049 4.25082 -16.4889 12.5894 -3.16435 11.7066 9.67715 -8.1171 53.6496 -10.0604 -6.23966 129.682 39.8149 -49.2623 -9.17776e-006 -3.32771e-006 -6.09793e-006 28.6361 22.3538 -1.34268 -9.47833e-006 3.09696e-006 -3.00001 8.03013 -4.95162 0.697669 -70.7711 -4.96095 3.76988 -121.947 47.5094 23.2459 -1.93372e-006 2.06424e-007 2.61463e-006 -34.0855 12.0723 2.25629 -9.25065e-007 2.84242e-006 3.00001 -8.03083 -4.95143 -0.697732 -177.341 66.3227 3.78289 180 1.52509e-005 178.154 176.679 82.0448 -178.513 2.7922e-006 -1.83524e-007 1.88249 -17.5258 60.0003 14.0913 8.13649 25.2327 -3.48774 -154.78 66.6395 -25.3192 4.54188e-006 -4.6773e-006 -1.14363 53.6381 -85.5504 54.139 4.34571e-006 -5.44513e-006 -2.42253 18.0786 64.3854 -16.8114 -8.13649 25.2326 3.48774 
51.1722 52.4221 -5.31411 -6.00443 -19.0323 -6.70664 1.79925 0.610457 2.26863 3.56351 5.28927 4.28513 3.5186 6.93064 4.23104 -16.5403 12.5817 -3.12221 11.7425 9.71505 -8.093 53.6063 -10.0326 -6.2199 129.794 39.8497 -49.2639 -9.17776e-006 -3.32771e-006 -6.09793e-006 28.673 22.2346 -1.32863 -9.47833e-006 3.09696e-006 -3.00001 8.03013 -4.95162 0.697669 -70.7927 -5.00557 3.79277 -121.911 47.576 23.2819 -1.93372e-006 2.06424e-007 2.61463e-006 -34.0978 12.0283 2.23667 -9.25065e-007 2.84242e-006 3.00001 -8.03083 -4.95143 -0.697732 -177.348 66.3126 3.78467 180 1.52509e-005 178.155 176.764 82.0936 -178.591 2.7922e-006 -1.83524e-007 1.88192 -17.5355 60.0435 14.1147 8.13649 25.2327 -3.48774 -154.803 66.6105 -25.3074 4.54188e-006 -4.6773e-006 -1.14808 54.0422 -85.5655 54.5281 4.34571e-006 -5.44513e-006 -2.41478 18.0658 64.3641 -16.7978 -8.13649 25.2326 3.48774 
51.1728 52.4244 -5.31604 -5.99961 -19.0478 -6.7133 1.79587 0.623745 2.25859 3.55651 5.31541 4.26515 3.51185 6.9568 4.21118 -16.5925 12.5736 -3.07966 11.7792 9.75324 -8.06865 53.5626 -10.0046 -6.19995 129.907 39.8847 -49.2659 -9.17776e-006 -3.32771e-006 -6.09793e-006 28.71 22.1149 -1.31464 -9.47833e-006 3.09696e-006 -3.00001 8.03013 -4.95162 0.697669 -70.8151 -5.05082 3.81604 -121.875 47.6429 23.3177 -1.93372e-006 2.06424e-007 2.61463e-006 -34.1099 11.9844 2.21709 -9.25065e-007 2.84242e-006 3.00001 -8.03083 -4.95143 -0.697732 -177.352 66.3014 3.78516 180 1.52509e-005 178.156 176.853 82.1439 -178.671 2.7922e-006 -1.83524e-007 1.88133 -17.5455 60.0881 14.1388 8.13649 25.2327 -3.48774 -154.826 66.5797 -25.2955 4.54188e-006 -4.6773e-006 -1.15264 54.4626 -85.5807 54.933 4.34571e-006 -5.44513e-006 -2.4068 18.0523 64.3417 -16.7835 -8.13649 25.2326 3.48774 
51.1737 52.4191 -5.31803 -5.99495 -19.0638 -6.72029 1.7925 0.637154 2.24854 3.54956 5.34178 4.24513 3.50515 6.9832 4.19126 -16.6451 12.5651 -3.03688 11.8161 9.79159 -8.04417 53.5186 -9.97631 -6.1799 130.021 39.92 -49.268 -9.17776e-006 -3.32771e-006 -6.09793e-006 28.7472 21.9949 -1.30069 -9.47833e-006 3.09696e-006 -3.00001 8.03013 -4.95162 0.697669 -70.8379 -5.09644 3.83951 -121.838 47.71 23.3532 -1.93372e-006 2.06424e-007 2.61463e-006 -34.1219 11.9406 2.19753 -9.25065e-007 2.84242e-006 3.00001 -8.03083 -4.95143 -0.697732 -177.356 66.2897 3.7849 180 1.52509e-005 178.157 176.943 82.1949 -178.754 2.7922e-006 -1.83524e-007 1.88074 -17.5558 60.1334 14.1635 8.13649 25.2327 -3.48774 -154.85 66.5479 -25.2835 4.54188e-006 -4.6773e-006 -1.15727 54.8936 -85.5959 55.3482 4.34571e-006 -5.44513e-006 -2.39868 18.0385 64.3186 -16.7688 -8.13649 25.2326 3.48774 
51.1756 52.4199 -5.32143 -5.99033 -19.08 -6.72737 1.78914 0.650592 2.23847 3.54263 5.36822 4.2251 3.49848 7.00966 4.17134 -16.6977 12.5566 -2.99404 11.8531 9.83 -8.01965 53.4745 -9.94803 -6.15983 130.135 39.9553 -49.2702 -9.17776e-006 -3.32771e-006 -6.09793e-006 28.7845 21.8749 -1.28677 -9.47833e-006 3.09696e-006 -3.00001 8.03013 -4.95162 0.697669 -70.8608 -5.14215 3.86304 -121.801 47.7771 23.3888 -1.93372e-006 2.06424e-007 2.61463e-006 -34.1339 11.8968 2.17798 -9.25065e-007 2.84242e-006 3.00001 -8.03083 -4.95143 -0.697732 -177.36 66.2777 3.78446 180 1.52509e-005 178.158 177.035 82.2461 -178.837 2.7922e-006 -1.83524e-007 1.88015 -17.5662 60.1789 14.1884 8.13649 25.2327 -3.48774 -154.873 66.5159 -25.2716 4.54188e-006 -4.6773e-006 -1.16192 55.3296 -85.6109 55.7682 4.34571e-006 -5.44513e-006 -2.39053 18.0247 64.2954 -16.754 -8.13649 25.2326 3.48774 
